<?xml version="1.0" encoding="utf-8"?><svg viewBox="0 0 21 20" xmlns="http://www.w3.org/2000/svg" xmlns:xlink="http://www.w3.org/1999/xlink"><style>:root>svg{display:none}:root>svg:target{display:block}</style><svg fill="none" viewBox="0 0 20 20" id="arrow" xmlns="http://www.w3.org/2000/svg"><path d="M5 7.5l5 5 5-5" stroke="#15365E" stroke-width="2" stroke-linecap="round" stroke-linejoin="round"/></svg><svg fill="none" viewBox="0 0 20 20" id="arrow-btn" xmlns="http://www.w3.org/2000/svg"><path d="M4 10h11.833M10 4l6 6-6 6" stroke="#fff" stroke-width="2" stroke-linecap="round" stroke-linejoin="round"/></svg><svg fill="none" viewBox="0 0 20 20" id="arrow-btn-dark" xmlns="http://www.w3.org/2000/svg"><path d="M4 10h11.833M10 4l6 6-6 6" stroke="#15365E" stroke-width="2" stroke-linecap="round" stroke-linejoin="round"/></svg><svg viewBox="0 0 20 20" id="clock" xmlns="http://www.w3.org/2000/svg"><path d="M10 18.333a8.333 8.333 0 100-16.666 8.333 8.333 0 000 16.666z"/><path d="M10 5v5l3.333 1.667"/></svg><svg fill="none" viewBox="0 0 21 20" id="cross" xmlns="http://www.w3.org/2000/svg"><path d="M15.5 5l-10 10m0-10l10 10" stroke="#FFF" stroke-width="2" stroke-linecap="round" stroke-linejoin="round"/></svg><svg fill="none" viewBox="0 0 21 20" id="cross-dark" xmlns="http://www.w3.org/2000/svg"><path d="M15.5 5l-10 10m0-10l10 10" stroke="#15365E" stroke-width="2" stroke-linecap="round" stroke-linejoin="round"/></svg><svg viewBox="0 0 20 20" id="info" xmlns="http://www.w3.org/2000/svg"><path d="M10 18.333a8.333 8.333 0 100-16.666 8.333 8.333 0 000 16.666zm0-5V10m0-3.333h.008"/></svg><svg viewBox="0 0 20 20" id="plus" xmlns="http://www.w3.org/2000/svg"><path d="M10 18.333a8.333 8.333 0 100-16.667 8.333 8.333 0 000 16.667zm0-11.666v6.666M6.667 10h6.666"/></svg><svg fill="none" viewBox="0 0 20 20" id="plus-big" xmlns="http://www.w3.org/2000/svg"><path d="M10 4.167v11.666M4.167 10h11.666" stroke="#fff" stroke-width="2" stroke-linecap="round" stroke-linejoin="round"/></svg><svg fill="none" viewBox="0 0 20 20" id="plus-big-dark" xmlns="http://www.w3.org/2000/svg"><path d="M10 4.167v11.666M4.167 10h11.666" stroke="#15365E" stroke-width="2" stroke-linecap="round" stroke-linejoin="round"/></svg><svg fill="none" viewBox="0 0 20 20" id="search" xmlns="http://www.w3.org/2000/svg"><path d="M9.167 15.833a6.667 6.667 0 100-13.333 6.667 6.667 0 000 13.333zM17.5 17.5l-3.625-3.625" stroke="#7488A1" stroke-width="2" stroke-linecap="round" stroke-linejoin="round"/></svg><svg fill="none" viewBox="0 0 20 20" id="search-dark" xmlns="http://www.w3.org/2000/svg"><path d="M9.167 15.833a6.667 6.667 0 100-13.333 6.667 6.667 0 000 13.333zM17.5 17.5l-3.625-3.625" stroke="#15365E" stroke-width="2" stroke-linecap="round" stroke-linejoin="round"/></svg><svg fill="none" viewBox="0 0 20 20" id="sort" xmlns="http://www.w3.org/2000/svg"><path d="M18.333 2.5H1.667l6.666 7.883v5.45l3.333 1.667v-7.117L18.334 2.5z" stroke="#FFF" stroke-width="2" stroke-linecap="round" stroke-linejoin="round"/></svg><svg fill="none" viewBox="0 0 20 20" id="sort-dark" xmlns="http://www.w3.org/2000/svg"><path d="M18.333 2.5H1.667l6.666 7.883v5.45l3.333 1.667v-7.117L18.334 2.5z" stroke="#15365E" stroke-width="2" stroke-linecap="round" stroke-linejoin="round"/></svg><svg fill="none" viewBox="0 0 20 20" id="tel" xmlns="http://www.w3.org/2000/svg"><path d="M18.333 14.1v2.5a1.667 1.667 0 01-1.816 1.667 16.492 16.492 0 01-7.192-2.559 16.251 16.251 0 01-5-5 16.492 16.492 0 01-2.558-7.225 1.667 1.667 0 011.658-1.816h2.5A1.667 1.667 0 017.592 3.1c.105.8.301 1.586.583 2.342A1.667 1.667 0 017.8 7.2L6.742 8.258a13.334 13.334 0 005 5L12.8 12.2a1.667 1.667 0 011.758-.375c.757.282 1.542.478 2.342.583a1.667 1.667 0 011.433 1.692z" stroke="#fff" stroke-width="2" stroke-linecap="round" stroke-linejoin="round"/><path d="M13 4h6m-3 3V1" stroke="#fff" stroke-width="2" stroke-linecap="round"/></svg><svg fill="none" viewBox="0 0 20 20" id="tel-dark" xmlns="http://www.w3.org/2000/svg"><path d="M18.333 14.1v2.5a1.667 1.667 0 01-1.816 1.667 16.492 16.492 0 01-7.192-2.559 16.251 16.251 0 01-5-5 16.492 16.492 0 01-2.558-7.225 1.667 1.667 0 011.658-1.816h2.5A1.667 1.667 0 017.592 3.1c.105.8.301 1.586.583 2.342A1.667 1.667 0 017.8 7.2L6.742 8.258a13.334 13.334 0 005 5L12.8 12.2a1.667 1.667 0 011.758-.375c.757.282 1.542.478 2.342.583a1.667 1.667 0 011.433 1.692z" stroke="#15365E" stroke-width="2" stroke-linecap="round" stroke-linejoin="round"/><path d="M13 4h6m-3 3V1" stroke="#15365E" stroke-width="2" stroke-linecap="round"/></svg></svg>